<?xml version="1.0" encoding="UTF-8"?><svg id="b" xmlns="http://www.w3.org/2000/svg" viewBox="0 0 663.14 649.62"><defs><style>.d{stroke-width:0px;fill:#000;}</style></defs><g id="c"><path class="d" d="M627.99,280.19l-7.03-2.28c-29.51-9.59-62.19,3.53-75.5,31.56-1.17,2.46-2.17,4.97-2.99,7.52-4.17,12.84-4.02,26.63.55,39.58,2.05,5.81,4.9,11.18,8.44,16.01,7.08,9.66,7.87,22.58,2.7,33.38l-11.49,24.04c-2.32,4.85-7.47,7.57-12.82,7.03-.07,0-.14-.01-.21-.02-6.93-.67-12.56-5.84-13.43-12.75l-12.14-96.64c-.81-6.42,2.34-12.64,7.9-15.94,13.01-7.7,23.38-20.25,28.02-36.59,2.48-8.71,2.91-17.9,1.37-26.81,0,0,0,0,.01,0,22.56,5.26,47.42-2.26,63.04-22.3,18.37-23.55,16.98-57.54-3.19-79.55-17.29-18.9-43.21-24.42-65.55-16.85-11.71,3.95-24.67.74-33.63-7.78l-15.92-15.16c-5.24-4.97-6.66-12.62-3.91-19.3,3.4-8.31,4.97-17.38,4.48-26.66-.74-14.18-6.41-27.84-15.98-38.33-24.4-26.76-66.06-26.83-90.56-1.01l-4.35,5.96c-18.24,25.11-15.85,60.25,6.68,81.58,1.99,1.86,4.06,3.59,6.24,5.16,10.93,7.95,24.08,12.05,37.8,11.71,6.15-.15,12.16-1.21,17.84-3.07,11.37-3.76,23.91-.51,32.58,7.74l19.32,18.35c3.89,3.72,4.88,9.45,2.73,14.38-.02.06-.06.13-.08.19-2.79,6.38-9.43,10.15-16.28,8.84l-95.66-18.31c-6.36-1.23-11.31-6.13-12.73-12.45-3.3-14.76-12.03-28.5-26.13-37.95-7.53-5.05-16.13-8.35-25.09-9.62,11.99-19.81,12.51-45.81-1.71-66.84-16.72-24.73-49.47-33.91-76.65-21.54-23.3,10.61-36.55,33.55-36.28,57.14.15,12.37-6.91,23.7-17.8,29.57l-19.32,10.49c-6.34,3.42-14.06,2.41-19.55-2.26-6.87-5.81-14.99-10.08-23.97-12.51-13.72-3.68-28.45-2.49-41.39,3.36-33,14.95-45.92,54.54-28.96,85.83l4.33,5.98c18.24,25.09,52.41,33.7,79.63,18.86,2.41-1.31,4.69-2.75,6.85-4.33,10.93-7.93,18.9-19.17,22.81-32.34,1.75-5.9,2.62-11.92,2.6-17.91-.04-11.99,6.89-22.89,17.44-28.6l23.42-12.68c4.74-2.58,10.49-1.73,14.5,1.84.06.04.11.11.17.15,5.2,4.61,6.72,12.09,3.36,18.2l-46.97,85.32c-3.13,5.67-9.32,8.86-15.77,8.24-15.05-1.42-30.82,2.64-44.18,13.13-7.1,5.6-12.89,12.77-16.87,20.86v.02s0,.01,0,.02c-15.14-17.52-39.69-26.06-64.1-19.04C15.87,243.07-2.98,271.38.39,301.05c2.89,25.44,20.61,45.13,43.13,52.16,11.8,3.68,20.39,13.9,22.63,26.06l3.99,21.61c1.31,7.1-2.04,14.12-8.18,17.91-7.65,4.73-14.24,11.13-19.31,18.93-7.74,11.91-11.17,26.29-9.6,40.4,4.02,35.99,37.68,60.52,72.68,54.06l7.03-2.28c29.51-9.59,48.24-39.41,42.53-69.91-.5-2.68-1.17-5.3-2-7.84-4.17-12.84-12.4-23.91-23.71-31.69-5.07-3.49-10.54-6.17-16.24-8-11.4-3.66-19.64-13.64-21.81-25.42l-4.83-26.21c-.98-5.29,1.6-10.51,6.24-13.23.06-.04.12-.07.18-.11,6-3.53,13.6-2.66,18.36,2.42l66.63,71.05c4.43,4.72,5.54,11.6,2.97,17.54-6,13.88-7.01,30.12-1.16,46.07,3.12,8.51,8.18,16.21,14.67,22.51-21.35,8.99-37.07,29.7-37.93,55.09-1.01,29.84,20.1,56.52,49.35,62.48,25.09,5.12,49.29-5.66,62.94-24.91,7.15-10.09,19.52-15.09,31.78-13.47l21.79,2.89c7.15.95,12.8,6.3,14.51,13.32,2.13,8.73,6.19,16.98,12.03,24.21,8.93,11.04,21.55,18.75,35.46,21.62,35.47,7.3,69.2-17.14,73.88-52.42v-7.39c0-31.03-22.58-58.06-53.35-62.05-2.7-.35-5.4-.52-8.08-.52-13.5,0-26.57,4.4-37.47,12.75-4.89,3.74-9.12,8.11-12.62,12.97-7,9.71-19.04,14.46-30.91,12.89l-26.42-3.5c-5.33-.71-9.5-4.77-10.65-10.02-.01-.07-.03-.14-.04-.2-1.5-6.8,1.67-13.75,7.97-16.71l88.16-41.41c5.86-2.75,12.75-1.68,17.6,2.59,11.34,9.99,26.48,15.97,43.46,15.34,9.05-.34,17.95-2.75,25.95-6.98,1.96,23.07,16.79,44.41,40.67,53.07,28.07,10.18,59.96-1.65,74.67-27.63,12.62-22.28,9.85-48.63-4.24-67.55-7.38-9.92-8.32-23.23-2.99-34.39l9.48-19.83c3.11-6.51,9.95-10.22,17.15-9.68,8.97.67,18.06-.64,26.75-3.96,13.26-5.08,24.49-14.7,31.52-27.04,17.91-31.48,5.09-71.11-27.02-86.46ZM446.7,95.49c-3.91,2.75-8.37,4.74-13.06,5.77-12.96,2.88-25.81-.76-35.07-9.58-15.31-14.54-15.92-38.81-1.37-54.12,7.5-7.88,17.63-11.88,27.76-11.88,9.47,0,18.96,3.49,26.36,10.53,7.4,7.04,11.63,16.55,11.88,26.76.34,12.81-5.62,24.82-16.49,32.51ZM149.9,150.89c-1.29,13.21-8.71,24.31-19.96,30.4-18.56,10.06-41.84,3.13-51.88-15.43-3.13-5.77-4.61-12.01-4.61-18.16,0-13.61,7.25-26.81,20.02-33.72,8.98-4.86,19.34-5.94,29.13-3.04,12.3,3.66,21.88,13.02,25.81,25.75,1.44,4.57,1.92,9.43,1.48,14.21ZM95.45,433.09c4.79.06,9.56,1.09,13.96,3,12.17,5.3,20.43,15.79,22.75,28.36,3.83,20.76-9.95,40.76-30.7,44.58h0c-20.76,3.83-40.75-9.96-44.58-30.7-1.85-10.05.32-20.23,6.12-28.65,7.27-10.55,19.14-16.77,32.45-16.59ZM68.78,331.82h0c-13.24,2.44-26.68-2.1-36.05-12.69-2.11-2.39-3.89-5.08-5.26-7.96-11.81-24.86,4.52-52.25,30.31-55.05,18.07-1.96,35.4,9.46,40.66,26.86,6.71,22.21-7.49,44.76-29.67,48.85ZM360.97,575.07c1.54-4.54,3.99-8.76,7.17-12.35,8.8-9.94,21.33-14.55,34-12.88,20.92,2.77,35.69,22.05,32.91,42.98h0c-2.77,20.92-22.07,35.68-42.98,32.91-10.14-1.34-19.14-6.55-25.36-14.67-7.79-10.17-10.03-23.39-5.75-35.99ZM516.8,270.32c-.52,1.61-1.16,3.2-1.9,4.75-10.57,22.11-39.74,29.45-59.87,12.26-2.42-2.07-4.56-4.48-6.31-7.13-7.81-11.82-8.68-25.99-2.88-38.15,4.48-9.38,12.4-16.41,22.26-19.75,7.8-2.64,16.3-2.33,24.14.22l4.64,1.51c9.22,4.41,16.18,12.15,19.58,21.79,2.83,8.02,2.92,16.55.34,24.5ZM527.79,161.74c9.28-9.77,22.81-13.99,36.64-10.93,3.11.7,6.13,1.82,8.92,3.34,24.18,13.17,27.06,44.94,7.84,62.36-13.47,12.22-34.2,13.15-48.68,2.18-18.5-14.04-20.25-40.59-4.71-56.95ZM336.37,124.05c1.37.99,2.68,2.07,3.93,3.28,17.78,16.87,15.73,46.89-6.83,60.71-2.73,1.67-5.67,2.96-8.73,3.81-13.68,3.78-27.42.23-37.18-9.05-7.53-7.17-11.75-16.87-11.9-27.27-.08-8.24,2.83-16.23,7.67-22.89l2.87-3.95c7.04-7.4,16.55-11.63,26.76-11.88,8.5-.21,16.64,2.33,23.4,7.25ZM231.85,61.85c0-6.81,1.84-13.7,5.56-20.04,1.63-2.75,3.64-5.26,5.96-7.44,20-18.92,51.09-11.86,61.73,11.82,7.44,16.57,1.95,36.59-12.98,46.97-19.05,13.23-44.88,6.7-55.64-13.13-3.07-5.69-4.63-11.9-4.63-18.18ZM127.38,270.44c2.41-8.14,7.36-15.09,14.12-20.02,1.37-.99,2.81-1.9,4.33-2.73,21.54-11.67,49.45-.47,55.64,25.28.74,3.09,1.06,6.3.91,9.47-.63,14.16-8.24,26.15-20.08,32.55-9.15,4.95-19.68,5.98-29.62,2.9-7.86-2.45-14.57-7.69-19.41-14.35l-2.88-3.95c-4.86-8.98-5.94-19.34-3.02-29.15ZM249.45,499.05l-4.64,1.51c-10.05,1.85-20.23-.32-28.65-6.12-7-4.82-12.09-11.67-14.68-19.62-.52-1.61-.94-3.27-1.26-4.96-4.44-24.1,14.84-47.18,41.23-45.11,3.18.25,6.32.94,9.3,2.06,13.27,4.97,22.3,15.93,24.75,29.17,1.88,10.22-.39,20.56-6.41,29.06-4.76,6.72-11.82,11.47-19.66,14.01ZM256.42,569.14h0c-1.77,13.34-10.24,24.72-23.21,30.37-2.93,1.27-6.03,2.13-9.19,2.54-27.3,3.55-48.3-20.44-42.99-45.84,3.72-17.79,19.94-30.74,38.11-30.37,23.2.48,40.25,20.96,37.29,43.31ZM372.06,440.71c-.62,4.69-.69,9.33-.27,13.85.74,7.85-3.58,15.31-10.72,18.66l-75.3,35.37c-3.32,1.56-6.78,2.72-10.31,3.48,2.94-2.25,5.68-4.77,8.16-7.53,13.19-14.67,18.55-33.89,15.06-52.84-.5-2.72-1.18-5.37-2.01-7.94-9.43-29.02-39.2-47.34-70.01-41.66-4.65.86-9.09,2.22-13.26,4.02-7.24,3.13-15.67,1.32-21.06-4.43l-56.91-60.69c-2.5-2.67-4.68-5.6-6.5-8.72,3.04,2.09,6.3,3.93,9.68,5.43,18.03,8.01,37.97,7.17,54.9-2.01,2.45-1.31,4.76-2.77,6.93-4.35,24.69-17.95,32.91-51.92,17.99-79.46-2.26-4.16-4.93-7.95-7.93-11.37-5.22-5.92-6.09-14.48-2.28-21.39l40.12-72.89c1.78-3.21,3.89-6.19,6.3-8.9-1.06,3.55-1.8,7.21-2.18,10.93-2.05,19.62,4.9,38.3,18.88,51.6,2.01,1.9,4.1,3.66,6.28,5.24,24.69,17.93,59.55,15.24,81.13-7.46,3.26-3.42,6.05-7.15,8.35-11.04,4.02-6.81,11.9-10.29,19.64-8.79l81.73,15.64c3.59.68,7.08,1.77,10.38,3.23-3.7.1-7.39.52-11.02,1.3-19.3,4.11-34.93,16.51-43.24,33.9-1.19,2.5-2.21,5.04-3.04,7.6-9.43,29.02,3.89,61.34,32.15,74.85,4.27,2.04,8.66,3.54,13.09,4.54,7.7,1.73,13.45,8.14,14.43,15.97l10.37,82.55c.46,3.63.49,7.29.13,10.88-1.23-3.49-2.78-6.87-4.64-10.09-9.88-17.08-26.5-28.12-45.6-30.65-2.75-.36-5.47-.54-8.17-.54-30.51,0-57.14,22.66-61.25,53.71ZM456.63,479.23c-6.75,5.17-14.84,7.9-23.2,7.9-1.69,0-3.4-.11-5.11-.34-24.29-3.22-40.29-28.69-30.16-53.15,1.22-2.94,2.85-5.72,4.83-8.21,8.83-11.08,22.04-16.29,35.39-14.53,10.3,1.37,19.44,6.73,25.66,15.07,4.92,6.6,7.25,14.79,7.25,23.02v4.88c-1.34,10.13-6.55,19.14-14.67,25.36ZM561.38,505c-5.06,27.06-34.37,39.62-56.88,26.72-15.77-9.04-23.08-28.46-17.11-45.63,7.62-21.91,32.37-31.81,52.71-22.08h0c12.14,5.81,20.35,17.38,21.71,31.46.31,3.17.16,6.39-.43,9.53ZM635.85,352.48c-4.41,9.22-12.15,16.18-21.79,19.58-12.08,4.27-25.34,2.31-36.01-5.65-3.84-2.87-7.1-6.5-9.53-10.63-6.74-11.44-7.25-24.79-1.74-36.32,9.1-19.04,32-27.13,51.04-18.02h0c19.04,9.1,27.11,32.01,18.02,51.04Z"/></g></svg>