<?xml version="1.0" encoding="UTF-8"?><svg id="b" xmlns="http://www.w3.org/2000/svg" viewBox="0 0 383.19 375.38"><defs><style>.d{stroke-width:0px;}</style></defs><g id="c"><path class="d" d="M148.17,328.87c-1.02,7.71-5.92,14.28-13.42,17.54-1.69.73-3.48,1.23-5.31,1.47-15.77,2.05-27.91-11.81-24.84-26.49,2.15-10.28,11.52-17.77,22.02-17.55,13.4.28,23.26,12.11,21.55,25.03Z"/><path class="d" d="M251.39,342.55c-1.47,11.11-11.01,19.21-21.92,19.21-.97,0-1.94-.06-2.92-.19-5.85-.77-11.06-3.78-14.65-8.48-4.51-5.88-5.8-13.51-3.33-20.8.89-2.62,2.31-5.06,4.14-7.14,5.08-5.74,12.33-8.41,19.65-7.44,12.09,1.61,20.62,12.75,19.02,24.84Z"/><path class="d" d="M362.87,161.9l-4.06-1.32c-17.05-5.54-35.94,2.05-43.63,18.24-.68,1.42-1.25,2.88-1.73,4.35-2.41,7.43-2.32,15.39.32,22.87,1.18,3.36,2.83,6.46,4.87,9.25,4.09,5.59,4.55,13.05,1.57,19.29l-6.65,13.89c-1.34,2.8-4.32,4.37-7.41,4.06-.04,0-.08-.01-.12-.01-4-.39-7.26-3.37-7.76-7.37l-7.01-55.84c-.47-3.71,1.35-7.3,4.56-9.21,7.52-4.45,13.51-11.7,16.19-21.14,1.43-5.03,1.69-10.34.79-15.49h0c13.04,3.05,27.4-1.31,36.43-12.89,10.61-13.61,9.81-33.25-1.84-45.97-9.99-10.92-24.97-14.1-37.88-9.73-6.77,2.28-14.26.43-19.44-4.5l-9.2-8.76c-3.03-2.87-3.84-7.29-2.26-11.15,1.97-4.8,2.87-10.04,2.59-15.41-.43-8.19-3.7-16.09-9.24-22.14-14.09-15.47-38.17-15.5-52.33-.59l-2.51,3.44c-10.55,14.52-9.16,34.81,3.86,47.14,1.14,1.07,2.35,2.07,3.6,2.98,6.32,4.59,13.91,6.96,21.84,6.77,3.55-.09,7.03-.7,10.31-1.77,6.58-2.17,13.82-.29,18.83,4.47l11.16,10.6c2.25,2.15,2.82,5.46,1.58,8.31-.01.03-.04.07-.05.11-1.61,3.69-5.45,5.86-9.4,5.1l-55.28-10.57c-3.68-.71-6.54-3.55-7.36-7.2-1.91-8.52-6.95-16.46-15.1-21.92-4.35-2.92-9.32-4.82-14.5-5.56,6.93-11.45,7.23-26.47-.99-38.62-9.66-14.3-28.59-19.59-44.29-12.45-13.46,6.13-21.12,19.38-20.96,33.02.09,7.14-3.99,13.69-10.29,17.09l-11.16,6.06c-3.66,1.98-8.12,1.39-11.3-1.31-3.97-3.36-8.66-5.82-13.86-7.23-7.93-2.13-16.44-1.44-23.92,1.94-19.07,8.64-26.53,31.52-16.73,49.6l2.51,3.46c10.54,14.5,30.28,19.47,46.01,10.9,1.39-.76,2.71-1.59,3.96-2.51,6.32-4.58,10.92-11.08,13.18-18.69,1.01-3.41,1.51-6.89,1.5-10.35-.02-6.92,3.98-13.23,10.08-16.53l13.53-7.33c2.74-1.49,6.06-1.01,8.38,1.06.03.02.06.06.1.08,3,2.66,3.88,6.99,1.94,10.52l-27.14,49.3c-1.81,3.28-5.39,5.12-9.11,4.77-8.7-.82-17.81,1.53-25.53,7.59-4.1,3.24-7.45,7.38-9.75,12.05h0s0,.02,0,.02c-8.75-10.12-22.93-15.06-37.04-11C9.17,140.45-1.72,156.81.22,173.96c1.67,14.7,11.92,26.08,24.93,30.14,6.82,2.13,11.78,8.03,13.08,15.06l2.3,12.49c.76,4.1-1.18,8.16-4.73,10.35-4.42,2.73-8.23,6.43-11.15,10.94-4.48,6.88-6.46,15.19-5.55,23.34,2.32,20.8,21.77,34.97,41.99,31.24l4.06-1.32c17.05-5.54,27.87-22.77,24.58-40.4-.29-1.55-.68-3.06-1.16-4.53-2.42-7.43-7.17-13.82-13.7-18.32-2.93-2.02-6.09-3.57-9.38-4.62-6.59-2.11-11.34-7.88-12.6-14.69l-2.79-15.15c-.56-3.06.92-6.07,3.61-7.64.03-.02.07-.04.1-.06,3.47-2.04,7.86-1.54,10.61,1.4l38.5,41.06c2.55,2.73,3.2,6.7,1.72,10.14-3.46,8.01-4.05,17.4-.67,26.62,1.8,4.91,4.73,9.37,8.48,13.01-12.34,5.19-21.42,17.16-21.92,31.83-.58,17.24,11.61,32.66,28.52,36.1,14.49,2.96,28.48-3.26,36.36-14.39,4.13-5.83,11.28-8.73,18.36-7.78l12.59,1.67c4.13.54,7.4,3.64,8.38,7.69,1.23,5.05,3.57,9.81,6.95,13.99,5.16,6.38,12.45,10.84,20.49,12.49,20.5,4.22,39.99-9.9,42.69-30.29v-4.27c0-17.92-13.05-33.55-30.83-35.85-1.56-.2-3.11-.3-4.66-.3-7.81,0-15.35,2.54-21.65,7.37-2.83,2.16-5.27,4.69-7.3,7.49-4.04,5.62-11,8.36-17.86,7.45l-15.26-2.02c-3.09-.41-5.5-2.76-6.15-5.8-.01-.04-.02-.08-.03-.12-.87-3.93.96-7.95,4.61-9.66l50.94-23.93c3.39-1.59,7.37-.97,10.17,1.5,6.56,5.77,15.31,9.23,25.11,8.86,5.23-.2,10.37-1.59,14.99-4.03,1.13,13.33,9.7,25.67,23.5,30.67,16.22,5.88,34.65-.95,43.15-15.97,7.29-12.87,5.69-28.1-2.45-39.03-4.26-5.73-4.81-13.43-1.73-19.87l5.48-11.46c1.8-3.76,5.75-5.91,9.91-5.59,5.18.39,10.44-.37,15.46-2.29,7.66-2.94,14.15-8.49,18.21-15.62,10.35-18.19,2.94-41.09-15.61-49.96ZM258.12,55.18c-2.26,1.59-4.84,2.73-7.55,3.33-7.49,1.66-14.92-.44-20.26-5.54-8.85-8.4-9.2-22.43-.8-31.27,4.34-4.55,10.19-6.86,16.04-6.86,5.47,0,10.96,2.01,15.23,6.08,4.28,4.07,6.72,9.56,6.86,15.47.2,7.4-3.25,14.34-9.53,18.79ZM86.62,87.19c-.75,7.64-5.03,14.05-11.53,17.57-10.73,5.82-24.18,1.81-29.98-8.92-1.81-3.33-2.66-6.94-2.66-10.49,0-7.86,4.19-15.49,11.57-19.48,5.19-2.81,11.18-3.43,16.83-1.76,7.11,2.11,12.64,7.52,14.91,14.88.83,2.63,1.11,5.45.86,8.21ZM55.15,250.25c2.77.03,5.52.62,8.07,1.73,7.04,3.06,11.81,9.12,13.15,16.39,2.21,11.99-5.74,23.55-17.74,25.76-1.35.25-2.69.37-4.02.37-10.46,0-19.78-7.47-21.74-18.11-1.07-5.81.18-11.69,3.54-16.56,4.2-6.1,11.06-9.69,18.75-9.59ZM39.75,191.74c-7.65,1.41-15.42-1.21-20.84-7.33-1.22-1.38-2.24-2.94-3.03-4.6-6.83-14.36,2.61-30.19,17.51-31.81,10.44-1.13,20.46,5.47,23.49,15.52,3.88,12.83-4.33,25.86-17.14,28.22ZM208.58,332.3c.89-2.62,2.31-5.06,4.14-7.14,5.08-5.74,12.33-8.41,19.65-7.44,12.09,1.61,20.62,12.75,19.02,24.84-1.47,11.11-11.01,19.21-21.92,19.21-.97,0-1.94-.06-2.92-.19-5.85-.77-11.06-3.78-14.65-8.48-4.51-5.88-5.8-13.51-3.33-20.8ZM304.97,93.46c5.36-5.65,13.18-8.09,21.17-6.32,1.79.4,3.54,1.05,5.15,1.93,13.97,7.61,15.64,25.97,4.53,36.03-7.78,7.06-19.76,7.6-28.13,1.26-10.69-8.11-11.71-23.45-2.73-32.91ZM284.43,128.59l2.68.87c5.33,2.55,9.35,7.02,11.32,12.59,1.64,4.63,1.69,9.56.2,14.16-.31.93-.67,1.85-1.1,2.75-6.11,12.78-22.96,17.01-34.6,7.08-1.4-1.2-2.63-2.59-3.65-4.13-4.51-6.83-5.02-15.02-1.66-22.04,2.59-5.42,7.17-9.48,12.87-11.41,4.51-1.53,9.42-1.35,13.94.13ZM194.37,71.68c.8.57,1.55,1.2,2.27,1.89,10.27,9.75,9.09,27.09-3.94,35.09-1.58.96-3.28,1.71-5.04,2.2-7.9,2.19-15.84.13-21.49-5.23-4.35-4.14-6.79-9.75-6.88-15.76-.05-4.76,1.64-9.38,4.43-13.23l1.66-2.28c4.07-4.28,9.56-6.72,15.46-6.86,4.91-.13,9.62,1.34,13.52,4.19ZM133.98,35.74c0-3.93,1.06-7.91,3.21-11.58.94-1.58,2.1-3.04,3.44-4.3,11.56-10.93,29.52-6.85,35.67,6.83,4.3,9.57,1.12,21.14-7.5,27.14-11.01,7.65-25.93,3.87-32.15-7.59-1.77-3.28-2.68-6.88-2.68-10.51ZM73.61,156.27c1.39-4.7,4.25-8.72,8.16-11.57.79-.57,1.62-1.1,2.5-1.58,12.45-6.74,28.57-.27,32.15,14.61.43,1.78.61,3.64.53,5.47-.36,8.18-4.76,15.11-11.6,18.81-5.29,2.86-11.37,3.46-17.12,1.68-4.54-1.42-8.41-4.45-11.22-8.3l-1.66-2.28c-2.81-5.19-3.43-11.18-1.75-16.84ZM148.17,328.87c-1.02,7.71-5.92,14.28-13.42,17.54-1.69.73-3.48,1.23-5.31,1.47-15.77,2.05-27.91-11.81-24.84-26.49,2.15-10.28,11.52-17.77,22.02-17.55,13.4.28,23.26,12.11,21.55,25.03ZM155.5,280.27c-2.75,3.88-6.84,6.63-11.36,8.1l-2.68.87c-5.81,1.07-11.69-.18-16.56-3.54-4.04-2.79-6.99-6.74-8.48-11.34-.3-.93-.54-1.89-.72-2.87-2.57-13.93,8.58-27.26,23.82-26.07,1.83.14,3.65.54,5.37,1.19,7.67,2.87,12.89,9.2,14.3,16.86,1.09,5.91-.23,11.88-3.7,16.79ZM272.33,262.26c-.77,5.85-3.78,11.06-8.48,14.65-3.9,2.99-8.58,4.56-13.41,4.56-.98,0-1.96-.06-2.95-.2-14.04-1.86-23.28-16.58-17.43-30.71.7-1.7,1.65-3.31,2.8-4.74,5.1-6.4,12.74-9.41,20.45-8.4,5.95.79,11.23,3.89,14.83,8.71,2.84,3.81,4.19,8.54,4.19,13.3v2.82ZM255.1,223.93c-1.58-.21-3.16-.31-4.72-.31-17.63,0-33.01,13.09-35.39,31.04-.36,2.71-.4,5.39-.16,8,.43,4.54-2.07,8.85-6.19,10.79l-43.52,20.44c-1.91.9-3.92,1.57-5.95,2.01,1.69-1.3,3.28-2.76,4.72-4.35,7.62-8.48,10.72-19.58,8.7-30.53-.29-1.58-.68-3.1-1.16-4.59-5.45-16.77-22.66-27.35-40.45-24.07-2.69.5-5.25,1.29-7.66,2.33-4.18,1.81-9.05.76-12.17-2.56l-32.88-35.07c-1.45-1.54-2.7-3.24-3.76-5.04,1.76,1.21,3.64,2.28,5.59,3.14,10.42,4.63,21.94,4.14,31.72-1.16,1.42-.76,2.75-1.6,4.01-2.52,14.27-10.37,19.02-30,10.39-45.91-1.31-2.41-2.84-4.59-4.58-6.57-3.02-3.42-3.52-8.37-1.32-12.37l23.19-42.12c1.02-1.85,2.25-3.58,3.64-5.14-.61,2.06-1.04,4.17-1.26,6.32-1.18,11.34,2.83,22.14,10.91,29.82,1.16,1.1,2.37,2.11,3.63,3.03,14.27,10.35,34.41,8.81,46.88-4.31,1.88-1.98,3.5-4.13,4.82-6.38,2.32-3.94,6.88-5.95,11.35-5.08l47.22,9.04c2.08.39,4.09,1.02,6,1.87-2.14.06-4.27.31-6.37.75-11.15,2.37-20.18,9.54-24.99,19.59-.69,1.44-1.28,2.91-1.76,4.39-5.45,16.77,2.25,35.44,18.58,43.25,2.47,1.18,5,2.05,7.56,2.62,4.45.99,7.78,4.7,8.34,9.22l5.99,47.7c.26,2.1.28,4.21.08,6.29-.72-2.02-1.61-3.97-2.69-5.83-5.7-9.87-15.31-16.24-26.35-17.71ZM324.39,291.81c-2.92,15.64-19.86,22.89-32.87,15.44-9.11-5.22-13.33-16.45-9.88-26.37,4.4-12.66,18.7-18.38,30.46-12.76,3.51,1.68,6.45,4.19,8.61,7.3,2.16,3.11,3.54,6.81,3.94,10.88.17,1.84.09,3.7-.25,5.51ZM367.42,203.68c-2.55,5.33-7.02,9.35-12.59,11.32-6.99,2.46-14.64,1.33-20.81-3.27-2.22-1.65-4.1-3.76-5.51-6.14-3.89-6.61-4.19-14.32-1.01-20.99,5.26-11,18.49-15.67,29.49-10.41,7.93,3.79,12.57,11.74,12.57,19.99,0,3.2-.69,6.44-2.16,9.5Z"/><path class="d" d="M116.95,163.21c-.36,8.18-4.76,15.11-11.6,18.81-5.29,2.86-11.37,3.46-17.12,1.68-4.54-1.42-8.41-4.45-11.22-8.3l-1.66-2.28c-2.81-5.19-3.43-11.18-1.75-16.84,1.39-4.7,4.25-8.72,8.16-11.57.79-.57,1.62-1.1,2.5-1.58,12.45-6.74,28.57-.27,32.15,14.61.43,1.78.61,3.64.53,5.47Z"/><path class="d" d="M369.58,194.18c0,3.2-.69,6.44-2.16,9.5-2.55,5.33-7.02,9.35-12.59,11.32-6.99,2.46-14.64,1.33-20.81-3.27-2.22-1.65-4.1-3.76-5.51-6.14-3.89-6.61-4.19-14.32-1.01-20.99,5.26-11,18.49-15.67,29.49-10.41,7.93,3.79,12.57,11.74,12.57,19.99Z"/><path class="d" d="M298.63,156.2c-.31.93-.67,1.85-1.1,2.75-6.11,12.78-22.96,17.01-34.6,7.08-1.4-1.2-2.63-2.59-3.65-4.13-4.51-6.83-5.02-15.02-1.66-22.04,2.59-5.42,7.17-9.48,12.87-11.41,4.51-1.53,9.42-1.35,13.94.13l2.68.87c5.33,2.55,9.35,7.02,11.32,12.59,1.64,4.63,1.69,9.56.2,14.16Z"/><path class="d" d="M267.65,36.39c.2,7.4-3.25,14.34-9.53,18.79-2.26,1.59-4.84,2.73-7.55,3.33-7.49,1.66-14.92-.44-20.26-5.54-8.85-8.4-9.2-22.43-.8-31.27,4.34-4.55,10.19-6.86,16.04-6.86,5.47,0,10.96,2.01,15.23,6.08,4.28,4.07,6.72,9.56,6.86,15.47Z"/><path class="d" d="M86.62,87.19c-.75,7.64-5.03,14.05-11.53,17.57-10.73,5.82-24.18,1.81-29.98-8.92-1.81-3.33-2.66-6.94-2.66-10.49,0-7.86,4.19-15.49,11.57-19.48,5.19-2.81,11.18-3.43,16.83-1.76,7.11,2.11,12.64,7.52,14.91,14.88.83,2.63,1.11,5.45.86,8.21Z"/></g></svg>